<?xml version="1.0" encoding="UTF-8" standalone="no"?>
<!-- Created with matplotlib (http://matplotlib.org/) -->

<svg
   xmlns:dc="http://purl.org/dc/elements/1.1/"
   xmlns:cc="http://creativecommons.org/ns#"
   xmlns:rdf="http://www.w3.org/1999/02/22-rdf-syntax-ns#"
   xmlns:svg="http://www.w3.org/2000/svg"
   xmlns="http://www.w3.org/2000/svg"
   xmlns:xlink="http://www.w3.org/1999/xlink"
   xmlns:sodipodi="http://sodipodi.sourceforge.net/DTD/sodipodi-0.dtd"
   xmlns:inkscape="http://www.inkscape.org/namespaces/inkscape"
   height="643pt"
   version="1.1"
   viewBox="0 0 537 643"
   width="537pt"
   id="svg2"
   inkscape:version="0.91 r13725"
   sodipodi:docname="hist_diff.svg"
   inkscape:export-filename="/home/bruno/Documentos/Doctorado/Presentaciones/AAA2016/slides/hist_diff.png"
   inkscape:export-xdpi="90"
   inkscape:export-ydpi="90">
  <metadata
     id="metadata437">
    <rdf:RDF>
      <cc:Work
         rdf:about="">
        <dc:format>image/svg+xml</dc:format>
        <dc:type
           rdf:resource="http://purl.org/dc/dcmitype/StillImage" />
      </cc:Work>
    </rdf:RDF>
  </metadata>
  <sodipodi:namedview
     pagecolor="#ffffff"
     bordercolor="#666666"
     borderopacity="1"
     objecttolerance="10"
     gridtolerance="10"
     guidetolerance="10"
     inkscape:pageopacity="0"
     inkscape:pageshadow="2"
     inkscape:window-width="1920"
     inkscape:window-height="1016"
     id="namedview435"
     showgrid="false"
     inkscape:zoom="0.83049306"
     inkscape:cx="204.6644"
     inkscape:cy="407.76187"
     inkscape:window-x="0"
     inkscape:window-y="27"
     inkscape:window-maximized="1"
     inkscape:current-layer="axes_1" />
  <defs
     id="defs4">
    <style
       type="text/css"
       id="style6">
*{stroke-linecap:butt;stroke-linejoin:round;stroke-miterlimit:100000;}
  </style>
    <defs
       id="defs149">
      <path
         style="stroke-linecap:butt;stroke-linejoin:round;stroke-miterlimit:100000"
         inkscape:connector-curvature="0"
         id="CMR17-50"
         d="m 41.703125,15.453125 -1.796875,0 C 38.90625,8.375 38.09375,7.171875 37.703125,6.5625 37.203125,5.765625 30,5.765625 28.59375,5.765625 l -19.1875,0 C 13,9.671875 20,16.75 28.5,24.953125 34.59375,30.734375 41.703125,37.53125 41.703125,47.421875 41.703125,59.21875 32.296875,66 21.796875,66 10.796875,66 4.09375,56.3125 4.09375,47.34375 4.09375,43.4375 7,42.9375 8.203125,42.9375 c 1,0 4,0.609375 4,4.09375 0,3.078125 -2.609375,3.96875 -4,3.96875 C 7.59375,51 7,50.90625 6.59375,50.703125 8.5,59.21875 14.296875,63.40625 20.40625,63.40625 c 8.6875,0 14.390625,-6.890625 14.390625,-15.984375 C 34.796875,38.734375 29.703125,31.25 24,24.75 L 4.09375,2.28125 4.09375,0 39.296875,0 Z" />
    </defs>
    <defs
       id="defs167">
      <path
         style="stroke-linecap:butt;stroke-linejoin:round;stroke-miterlimit:100000"
         inkscape:connector-curvature="0"
         id="CMR17-51"
         d="M 22.09375,33.703125 C 31,33.703125 34.90625,25.96875 34.90625,17.03125 34.90625,5 28.5,0.390625 22.703125,0.390625 c -5.296875,0 -13.90625,2.640625 -16.609375,10.4375 0.5,-0.203125 1,-0.203125 1.5,-0.203125 2.40625,0 4.203125,1.59375 4.203125,4.1875 C 11.796875,17.703125 9.59375,19 7.59375,19 5.90625,19 3.296875,18.203125 3.296875,14.46875 3.296875,5.234375 12.296875,-2 22.90625,-2 34,-2 42.5,6.71875 42.5,16.953125 c 0,9.71875 -8,16.75 -17.5,17.84375 C 32.59375,36.375 39.90625,43.0625 39.90625,52.015625 39.90625,59.6875 32,65.296875 23,65.296875 c -9.09375,0 -17.09375,-5.46875 -17.09375,-13.28125 C 5.90625,48.59375 8.5,48 9.796875,48 c 2.109375,0 3.90625,1.296875 3.90625,3.890625 0,2.578125 -1.796875,3.875 -3.90625,3.875 -0.390625,0 -0.890625,0 -1.296875,-0.1875 C 11.40625,61.859375 19.296875,63 22.796875,63 c 3.5,0 10.109375,-1.671875 10.109375,-11.125 0,-2.765625 -0.40625,-7.6875 -3.8125,-12.03125 C 26.09375,36 22.703125,36 19.40625,35.6875 c -0.5,0 -2.8125,-0.234375 -3.203125,-0.234375 C 15.5,35.359375 15.09375,35.265625 15.09375,34.5 c 0,-0.703125 0.109375,-0.796875 2.109375,-0.796875 z" />
    </defs>
    <defs
       id="defs185">
      <path
         style="stroke-linecap:butt;stroke-linejoin:round;stroke-miterlimit:100000"
         inkscape:connector-curvature="0"
         id="CMR17-52"
         d="M 33.59375,64.40625 C 33.59375,66.5 33.5,66.5 31.703125,66.5 L 2,19.59375 2,17 l 25.796875,0 0,-9.859375 C 27.796875,3.5 27.59375,2.5 20.59375,2.5 l -1.890625,0 0,-2.5 c 3.203125,0 8.59375,0 12,0 3.390625,0 8.796875,0 12,0 l 0,2.5 -1.90625,0 c -7,0 -7.203125,1 -7.203125,4.640625 l 0,9.859375 10.203125,0 0,2.59375 -10.203125,0 z m -5.5,-6.546875 0,-38.265625 -24.09375,0 z" />
    </defs>
    <defs
       id="defs218">
      <path
         style="stroke-linecap:butt;stroke-linejoin:round;stroke-miterlimit:100000"
         inkscape:connector-curvature="0"
         id="CMR17-54"
         d="m 10.59375,34 c 0,23.65625 11.203125,29 17.703125,29 C 30.40625,63 35.5,62.640625 37.5,59 c -1.59375,0 -4.59375,0 -4.59375,-3.484375 0,-2.6875 2.1875,-3.59375 3.59375,-3.59375 0.90625,0 3.59375,0.390625 3.59375,3.703125 0,6.15625 -5,9.671875 -11.890625,9.671875 C 16.296875,65.296875 3.796875,52.96875 3.796875,31 3.796875,3.953125 15.09375,-2 23.09375,-2 32.796875,-2 42,6.671875 42,20.046875 42,32.515625 33.90625,41.59375 23.703125,41.59375 17.59375,41.59375 13.09375,37.609375 10.59375,30.625 Z m 12.5,-33.609375 C 10.796875,0.390625 10.796875,18.75 10.796875,22.4375 10.796875,29.625 14.203125,40 23.5,40 c 1.703125,0 6.59375,0 9.90625,-6.875 1.796875,-3.90625 1.796875,-7.984375 1.796875,-12.984375 0,-5.390625 0,-9.359375 -2.109375,-13.359375 -2.1875,-4.109375 -5.390625,-6.390625 -10,-6.390625" />
    </defs>
    <defs
       id="defs24">
      <path
         style="stroke-linecap:butt;stroke-linejoin:round;stroke-miterlimit:100000"
         inkscape:connector-curvature="0"
         id="CMSY10-0"
         d="m 65.90625,23 c 1.6875,0 3.5,0 3.5,2 0,2 -1.8125,2 -3.5,2 l -54.109375,0 c -1.703125,0 -3.5,0 -3.5,-2 0,-2 1.796875,-2 3.5,-2 z" />
      <path
         style="stroke-linecap:butt;stroke-linejoin:round;stroke-miterlimit:100000"
         inkscape:connector-curvature="0"
         id="CMR17-49"
         d="M 26.59375,63.40625 C 26.59375,65.5 26.5,65.5 25.09375,65.5 21.203125,61.1875 15.296875,59.796875 9.703125,59.796875 c -0.296875,0 -0.796875,0 -0.90625,-0.296875 C 8.703125,59.296875 8.703125,59.09375 8.703125,57 11.796875,57 17,57.59375 21,59.984375 L 21,7.203125 C 21,3.6875 20.796875,2.5 12.203125,2.5 l -3,0 0,-2.5 C 14,0 19,0 23.796875,0 28.59375,0 33.59375,0 38.40625,0 l 0,2.5 -3,0 c -8.609375,0 -8.8125,1.09375 -8.8125,4.65625 z" />
      <path
         style="stroke-linecap:butt;stroke-linejoin:round;stroke-miterlimit:100000"
         inkscape:connector-curvature="0"
         id="CMR17-53"
         d="M 11.40625,57.6875 C 12.40625,57.28125 16.5,56 20.703125,56 30,56 35.09375,61.109375 38,64.0625 38,64.953125 38,65.5 37.40625,65.5 c -0.109375,0 -0.3125,0 -1.109375,-0.453125 -3.5,-1.640625 -7.59375,-2.96875 -12.59375,-2.96875 -3,0 -7.5,0.40625 -12.40625,2.59375 -1.09375,0.5 -1.296875,0.5 -1.390625,0.5 -0.5,0 -0.609375,-0.109375 -0.609375,-2.09375 l 0,-28.65625 c 0,-1.78125 0,-2.28125 1,-2.28125 0.5,0 0.703125,0.203125 1.203125,0.890625 3.203125,4.484375 7.59375,6.375 12.59375,6.375 3.5,0 11,-2.1875 11,-19.265625 0,-3.1875 0,-8.96875 -3,-13.5625 -2.5,-4.09375 -6.390625,-6.1875 -10.6875,-6.1875 C 14.796875,0.390625 8.09375,5 6.296875,12.71875 6.703125,12.609375 7.5,12.421875 7.90625,12.421875 c 1.296875,0 3.796875,0.703125 3.796875,3.796875 C 11.703125,18.90625 9.796875,20 7.90625,20 5.59375,20 4.09375,18.59375 4.09375,15.796875 4.09375,7.09375 11,-2 21.59375,-2 c 10.3125,0 20.109375,8.875 20.109375,21.75 0,11.96875 -7.796875,21.25 -17.5,21.25 -5.109375,0 -9.40625,-1.890625 -12.796875,-5.46875 z" />
      <path
         style="stroke-linecap:butt;stroke-linejoin:round;stroke-miterlimit:100000"
         inkscape:connector-curvature="0"
         id="CMR17-48"
         d="M 42,31.640625 C 42,37.75 41.90625,48.125 37.703125,56.109375 34,63.109375 28.09375,65.59375 22.90625,65.59375 18.09375,65.59375 12,63.40625 8.203125,56.203125 4.203125,48.71875 3.796875,39.4375 3.796875,31.640625 3.796875,25.953125 3.90625,17.28125 7,9.671875 11.296875,-0.609375 19,-2 22.90625,-2 27.5,-2 34.5,-0.109375 38.59375,9.375 41.59375,16.28125 42,24.359375 42,31.640625 M 22.90625,-0.40625 c -6.40625,0 -10.203125,5.484375 -11.609375,13.09375 -1.09375,5.875 -1.09375,14.46875 -1.09375,20.0625 0,7.6875 0,14.078125 1.296875,20.171875 C 13.40625,61.390625 19,64 22.90625,64 27,64 32.296875,61.296875 34.203125,53.125 35.5,47.4375 35.59375,40.734375 35.59375,32.75 c 0,-6.5 0,-14.484375 -1.1875,-20.375 -2.109375,-10.890625 -8,-12.78125 -11.5,-12.78125" />
    </defs>
  </defs>
  <g
     id="figure_1">
    <g
       id="axes_1">
      <path
         inkscape:connector-curvature="0"
         id="path14"
         style="fill:#eaeaf2;stroke-linecap:butt;stroke-linejoin:round;stroke-miterlimit:100000"
         d="m 67.1625,579.15 416.4075,0 0,-514.8 -416.4075,0 z" />
      <path
         inkscape:connector-curvature="0"
         id="path19"
         style="fill:none;stroke:#ffffff;stroke-linecap:round;stroke-linejoin:round;stroke-miterlimit:100000"
         d="m 67.1625,579.15 0,-514.8"
         clip-path="url(#p14d15c0661)" />
      <g
         id="g30"
         transform="matrix(0.30517577,0,0,-0.30517577,33.351697,607.56808)"
         style="fill:#262626;stroke-linecap:butt;stroke-linejoin:round;stroke-miterlimit:100000">
        <use
           height="100%"
           width="100%"
           y="0"
           x="0"
           style="stroke-linecap:butt;stroke-linejoin:round;stroke-miterlimit:100000"
           id="use32"
           xlink:href="#CMSY10-0"
           transform="scale(0.99626401,0.99626401)" />
        <use
           height="100%"
           width="100%"
           y="0"
           x="0"
           style="stroke-linecap:butt;stroke-linejoin:round;stroke-miterlimit:100000"
           id="use34"
           xlink:href="#CMR17-49"
           transform="matrix(0.99626401,0,0,0.99626401,77.487468,0)" />
        <use
           height="100%"
           width="100%"
           y="0"
           x="0"
           style="stroke-linecap:butt;stroke-linejoin:round;stroke-miterlimit:100000"
           id="use36"
           xlink:href="#CMR17-53"
           transform="matrix(0.99626401,0,0,0.99626401,123.17794,0)" />
        <use
           height="100%"
           width="100%"
           y="0"
           x="0"
           style="stroke-linecap:butt;stroke-linejoin:round;stroke-miterlimit:100000"
           id="use38"
           xlink:href="#CMR17-48"
           transform="matrix(0.99626401,0,0,0.99626401,168.86842,0)" />
      </g>
      <path
         inkscape:connector-curvature="0"
         id="path42"
         style="fill:none;stroke:#ffffff;stroke-linecap:round;stroke-linejoin:round;stroke-miterlimit:100000"
         d="m 150.444,579.15 0,-514.8"
         clip-path="url(#p14d15c0661)" />
      <g
         id="g47"
         transform="matrix(0.30517577,0,0,-0.30517577,116.6332,607.56808)"
         style="fill:#262626;stroke-linecap:butt;stroke-linejoin:round;stroke-miterlimit:100000">
        <use
           height="100%"
           width="100%"
           y="0"
           x="0"
           style="stroke-linecap:butt;stroke-linejoin:round;stroke-miterlimit:100000"
           id="use49"
           xlink:href="#CMSY10-0"
           transform="scale(0.99626401,0.99626401)" />
        <use
           height="100%"
           width="100%"
           y="0"
           x="0"
           style="stroke-linecap:butt;stroke-linejoin:round;stroke-miterlimit:100000"
           id="use51"
           xlink:href="#CMR17-49"
           transform="matrix(0.99626401,0,0,0.99626401,77.487468,0)" />
        <use
           height="100%"
           width="100%"
           y="0"
           x="0"
           style="stroke-linecap:butt;stroke-linejoin:round;stroke-miterlimit:100000"
           id="use53"
           xlink:href="#CMR17-48"
           transform="matrix(0.99626401,0,0,0.99626401,123.17794,0)" />
        <use
           height="100%"
           width="100%"
           y="0"
           x="0"
           style="stroke-linecap:butt;stroke-linejoin:round;stroke-miterlimit:100000"
           id="use55"
           xlink:href="#CMR17-48"
           transform="matrix(0.99626401,0,0,0.99626401,168.86842,0)" />
      </g>
      <path
         inkscape:connector-curvature="0"
         id="path59"
         style="fill:none;stroke:#ffffff;stroke-linecap:round;stroke-linejoin:round;stroke-miterlimit:100000"
         d="m 233.7255,579.15 0,-514.8"
         clip-path="url(#p14d15c0661)" />
      <g
         id="g64"
         transform="matrix(0.30517577,0,0,-0.30517577,207.09264,607.56808)"
         style="fill:#262626;stroke-linecap:butt;stroke-linejoin:round;stroke-miterlimit:100000">
        <use
           height="100%"
           width="100%"
           y="0"
           x="0"
           style="stroke-linecap:butt;stroke-linejoin:round;stroke-miterlimit:100000"
           id="use66"
           xlink:href="#CMSY10-0"
           transform="scale(0.99626401,0.99626401)" />
        <use
           height="100%"
           width="100%"
           y="0"
           x="0"
           style="stroke-linecap:butt;stroke-linejoin:round;stroke-miterlimit:100000"
           id="use68"
           xlink:href="#CMR17-53"
           transform="matrix(0.99626401,0,0,0.99626401,77.487468,0)" />
        <use
           height="100%"
           width="100%"
           y="0"
           x="0"
           style="stroke-linecap:butt;stroke-linejoin:round;stroke-miterlimit:100000"
           id="use70"
           xlink:href="#CMR17-48"
           transform="matrix(0.99626401,0,0,0.99626401,123.17794,0)" />
      </g>
      <path
         inkscape:connector-curvature="0"
         id="path74"
         style="fill:none;stroke:#ffffff;stroke-linecap:round;stroke-linejoin:round;stroke-miterlimit:100000"
         d="m 317.007,579.15 0,-514.8"
         clip-path="url(#p14d15c0661)" />
      <g
         id="g79"
         transform="matrix(0.30517577,0,0,-0.30517577,309.83568,607.56808)"
         style="fill:#262626;stroke-linecap:butt;stroke-linejoin:round;stroke-miterlimit:100000">
        <use
           height="100%"
           width="100%"
           y="0"
           x="0"
           style="stroke-linecap:butt;stroke-linejoin:round;stroke-miterlimit:100000"
           id="use81"
           xlink:href="#CMR17-48"
           transform="scale(0.99626401,0.99626401)" />
      </g>
      <path
         inkscape:connector-curvature="0"
         id="path85"
         style="fill:none;stroke:#ffffff;stroke-linecap:round;stroke-linejoin:round;stroke-miterlimit:100000"
         d="m 400.2885,579.15 0,-514.8"
         clip-path="url(#p14d15c0661)" />
      <g
         id="g90"
         transform="matrix(0.30517577,0,0,-0.30517577,385.90887,607.56808)"
         style="fill:#262626;stroke-linecap:butt;stroke-linejoin:round;stroke-miterlimit:100000">
        <use
           height="100%"
           width="100%"
           y="0"
           x="0"
           style="stroke-linecap:butt;stroke-linejoin:round;stroke-miterlimit:100000"
           id="use92"
           xlink:href="#CMR17-53"
           transform="scale(0.99626401,0.99626401)" />
        <use
           height="100%"
           width="100%"
           y="0"
           x="0"
           style="stroke-linecap:butt;stroke-linejoin:round;stroke-miterlimit:100000"
           id="use94"
           xlink:href="#CMR17-48"
           transform="matrix(0.99626401,0,0,0.99626401,45.690477,0)" />
      </g>
      <path
         inkscape:connector-curvature="0"
         id="path98"
         style="fill:none;stroke:#ffffff;stroke-linecap:round;stroke-linejoin:round;stroke-miterlimit:100000"
         d="m 483.57,579.15 0,-514.8"
         clip-path="url(#p14d15c0661)" />
      <g
         id="g103"
         transform="matrix(0.30517577,0,0,-0.30517577,461.54134,607.56808)"
         style="fill:#262626;stroke-linecap:butt;stroke-linejoin:round;stroke-miterlimit:100000">
        <use
           height="100%"
           width="100%"
           y="0"
           x="0"
           style="stroke-linecap:butt;stroke-linejoin:round;stroke-miterlimit:100000"
           id="use105"
           xlink:href="#CMR17-49"
           transform="scale(0.99626401,0.99626401)" />
        <use
           height="100%"
           width="100%"
           y="0"
           x="0"
           style="stroke-linecap:butt;stroke-linejoin:round;stroke-miterlimit:100000"
           id="use107"
           xlink:href="#CMR17-48"
           transform="matrix(0.99626401,0,0,0.99626401,45.690477,0)" />
        <use
           height="100%"
           width="100%"
           y="0"
           x="0"
           style="stroke-linecap:butt;stroke-linejoin:round;stroke-miterlimit:100000"
           id="use109"
           xlink:href="#CMR17-48"
           transform="matrix(0.99626401,0,0,0.99626401,91.380954,0)" />
      </g>
      <path
         inkscape:connector-curvature="0"
         id="path114"
         style="fill:none;stroke:#ffffff;stroke-linecap:round;stroke-linejoin:round;stroke-miterlimit:100000"
         d="m 67.1625,579.15 416.4075,0"
         clip-path="url(#p14d15c0661)"
         transform="translate(0,8)" />
      <path
         inkscape:connector-curvature="0"
         id="path129"
         style="fill:none;stroke:#ffffff;stroke-linecap:round;stroke-linejoin:round;stroke-miterlimit:100000"
         d="m 67.1625,493.35 416.4075,0"
         clip-path="url(#p14d15c0661)" />
      <g
         id="g134"
         transform="matrix(0.30517577,0,0,-0.30517577,26.816817,505.63124)"
         style="fill:#262626;stroke-linecap:butt;stroke-linejoin:round;stroke-miterlimit:100000">
        <use
           height="100%"
           width="100%"
           y="0"
           x="0"
           style="stroke-linecap:butt;stroke-linejoin:round;stroke-miterlimit:100000"
           id="use136"
           xlink:href="#CMR17-49"
           transform="scale(0.99626401,0.99626401)" />
        <use
           height="100%"
           width="100%"
           y="0"
           x="0"
           style="stroke-linecap:butt;stroke-linejoin:round;stroke-miterlimit:100000"
           id="use138"
           xlink:href="#CMR17-48"
           transform="matrix(0.99626401,0,0,0.99626401,45.690477,0)" />
        <use
           height="100%"
           width="100%"
           y="0"
           x="0"
           style="stroke-linecap:butt;stroke-linejoin:round;stroke-miterlimit:100000"
           id="use140"
           xlink:href="#CMR17-49"
           transform="matrix(0.69738177,0,0,0.69738177,91.380954,36.153639)" />
      </g>
      <path
         inkscape:connector-curvature="0"
         id="path144"
         style="fill:none;stroke:#ffffff;stroke-linecap:round;stroke-linejoin:round;stroke-miterlimit:100000"
         d="m 67.1625,407.55 416.4075,0"
         clip-path="url(#p14d15c0661)" />
      <g
         id="g152"
         transform="matrix(0.30517577,0,0,-0.30517577,26.58095,419.867)"
         style="fill:#262626;stroke-linecap:butt;stroke-linejoin:round;stroke-miterlimit:100000">
        <use
           height="100%"
           width="100%"
           y="0"
           x="0"
           style="stroke-linecap:butt;stroke-linejoin:round;stroke-miterlimit:100000"
           id="use154"
           xlink:href="#CMR17-49"
           transform="scale(0.99626401,0.99626401)" />
        <use
           height="100%"
           width="100%"
           y="0"
           x="0"
           style="stroke-linecap:butt;stroke-linejoin:round;stroke-miterlimit:100000"
           id="use156"
           xlink:href="#CMR17-48"
           transform="matrix(0.99626401,0,0,0.99626401,45.690477,0)" />
        <use
           height="100%"
           width="100%"
           y="0"
           x="0"
           style="stroke-linecap:butt;stroke-linejoin:round;stroke-miterlimit:100000"
           id="use158"
           xlink:href="#CMR17-50"
           transform="matrix(0.69738177,0,0,0.69738177,91.380954,36.153639)" />
      </g>
      <path
         inkscape:connector-curvature="0"
         id="path162"
         style="fill:none;stroke:#ffffff;stroke-linecap:round;stroke-linejoin:round;stroke-miterlimit:100000"
         d="m 67.1625,321.75 416.4075,0"
         clip-path="url(#p14d15c0661)" />
      <g
         id="g170"
         transform="matrix(0.30517577,0,0,-0.30517577,26.523939,334.0167)"
         style="fill:#262626;stroke-linecap:butt;stroke-linejoin:round;stroke-miterlimit:100000">
        <use
           height="100%"
           width="100%"
           y="0"
           x="0"
           style="stroke-linecap:butt;stroke-linejoin:round;stroke-miterlimit:100000"
           id="use172"
           xlink:href="#CMR17-49"
           transform="scale(0.99626401,0.99626401)" />
        <use
           height="100%"
           width="100%"
           y="0"
           x="0"
           style="stroke-linecap:butt;stroke-linejoin:round;stroke-miterlimit:100000"
           id="use174"
           xlink:href="#CMR17-48"
           transform="matrix(0.99626401,0,0,0.99626401,45.690477,0)" />
        <use
           height="100%"
           width="100%"
           y="0"
           x="0"
           style="stroke-linecap:butt;stroke-linejoin:round;stroke-miterlimit:100000"
           id="use176"
           xlink:href="#CMR17-51"
           transform="matrix(0.69738177,0,0,0.69738177,91.380954,36.153639)" />
      </g>
      <path
         inkscape:connector-curvature="0"
         id="path180"
         style="fill:none;stroke:#ffffff;stroke-linecap:round;stroke-linejoin:round;stroke-miterlimit:100000"
         d="m 67.1625,235.95 416.4075,0"
         clip-path="url(#p14d15c0661)" />
      <g
         id="g188"
         transform="matrix(0.30517577,0,0,-0.30517577,26.431157,248.30278)"
         style="fill:#262626;stroke-linecap:butt;stroke-linejoin:round;stroke-miterlimit:100000">
        <use
           height="100%"
           width="100%"
           y="0"
           x="0"
           style="stroke-linecap:butt;stroke-linejoin:round;stroke-miterlimit:100000"
           id="use190"
           xlink:href="#CMR17-49"
           transform="scale(0.99626401,0.99626401)" />
        <use
           height="100%"
           width="100%"
           y="0"
           x="0"
           style="stroke-linecap:butt;stroke-linejoin:round;stroke-miterlimit:100000"
           id="use192"
           xlink:href="#CMR17-48"
           transform="matrix(0.99626401,0,0,0.99626401,45.690477,0)" />
        <use
           height="100%"
           width="100%"
           y="0"
           x="0"
           style="stroke-linecap:butt;stroke-linejoin:round;stroke-miterlimit:100000"
           id="use194"
           xlink:href="#CMR17-52"
           transform="matrix(0.69738177,0,0,0.69738177,91.380954,36.153639)" />
      </g>
      <path
         inkscape:connector-curvature="0"
         id="path198"
         style="fill:none;stroke:#ffffff;stroke-linecap:round;stroke-linejoin:round;stroke-miterlimit:100000"
         d="m 67.1625,150.15 416.4075,0"
         clip-path="url(#p14d15c0661)" />
      <g
         id="g203"
         transform="matrix(0.30517577,0,0,-0.30517577,26.58095,162.43124)"
         style="fill:#262626;stroke-linecap:butt;stroke-linejoin:round;stroke-miterlimit:100000">
        <use
           height="100%"
           width="100%"
           y="0"
           x="0"
           style="stroke-linecap:butt;stroke-linejoin:round;stroke-miterlimit:100000"
           id="use205"
           xlink:href="#CMR17-49"
           transform="scale(0.99626401,0.99626401)" />
        <use
           height="100%"
           width="100%"
           y="0"
           x="0"
           style="stroke-linecap:butt;stroke-linejoin:round;stroke-miterlimit:100000"
           id="use207"
           xlink:href="#CMR17-48"
           transform="matrix(0.99626401,0,0,0.99626401,45.690477,0)" />
        <use
           height="100%"
           width="100%"
           y="0"
           x="0"
           style="stroke-linecap:butt;stroke-linejoin:round;stroke-miterlimit:100000"
           id="use209"
           xlink:href="#CMR17-53"
           transform="matrix(0.69738177,0,0,0.69738177,91.380954,36.153639)" />
      </g>
      <path
         inkscape:connector-curvature="0"
         id="path213"
         style="fill:none;stroke:#ffffff;stroke-linecap:round;stroke-linejoin:round;stroke-miterlimit:100000"
         d="m 67.1625,64.35 416.4075,0"
         clip-path="url(#p14d15c0661)" />
      <g
         id="g221"
         transform="matrix(0.30517577,0,0,-0.30517577,26.559711,76.616707)"
         style="fill:#262626;stroke-linecap:butt;stroke-linejoin:round;stroke-miterlimit:100000">
        <use
           height="100%"
           width="100%"
           y="0"
           x="0"
           style="stroke-linecap:butt;stroke-linejoin:round;stroke-miterlimit:100000"
           id="use223"
           xlink:href="#CMR17-49"
           transform="scale(0.99626401,0.99626401)" />
        <use
           height="100%"
           width="100%"
           y="0"
           x="0"
           style="stroke-linecap:butt;stroke-linejoin:round;stroke-miterlimit:100000"
           id="use225"
           xlink:href="#CMR17-48"
           transform="matrix(0.99626401,0,0,0.99626401,45.690477,0)" />
        <use
           height="100%"
           width="100%"
           y="0"
           x="0"
           style="stroke-linecap:butt;stroke-linejoin:round;stroke-miterlimit:100000"
           id="use227"
           xlink:href="#CMR17-54"
           transform="matrix(0.69738177,0,0,0.69738177,91.380954,36.153639)" />
      </g>
      <path
         inkscape:connector-curvature="0"
         id="path374"
         style="fill:#4c72b0;stroke:#000000;stroke-width:0.30000001;stroke-linecap:butt;stroke-linejoin:miter;stroke-miterlimit:100000"
         d="m 121.35301,26404.95 22.63425,0 0,-25907.67401 -22.63425,0 z"
         clip-path="url(#p14d15c0661)" />
      <path
         inkscape:connector-curvature="0"
         id="path377"
         style="fill:#4c72b0;stroke:#000000;stroke-width:0.30000001;stroke-linecap:butt;stroke-linejoin:miter;stroke-miterlimit:100000"
         d="m 143.98726,26404.95 22.63424,0 0,-25956.0885 -22.63424,0 z"
         clip-path="url(#p14d15c0661)" />
      <path
         inkscape:connector-curvature="0"
         id="path380"
         style="fill:#4c72b0;stroke:#000000;stroke-width:0.30000001;stroke-linecap:butt;stroke-linejoin:miter;stroke-miterlimit:100000"
         d="m 166.6215,26404.95 22.63424,0 0,-25997.4 -22.63424,0 z"
         clip-path="url(#p14d15c0661)" />
      <path
         inkscape:connector-curvature="0"
         id="path383"
         style="fill:#4c72b0;stroke:#000000;stroke-width:0.30000001;stroke-linecap:butt;stroke-linejoin:miter;stroke-miterlimit:100000"
         d="m 189.25574,26404.95 22.63424,0 0,-26030.17706 -22.63424,0 z"
         clip-path="url(#p14d15c0661)" />
      <path
         inkscape:connector-curvature="0"
         id="path386"
         style="fill:#4c72b0;stroke:#000000;stroke-width:0.30000001;stroke-linecap:butt;stroke-linejoin:miter;stroke-miterlimit:100000"
         d="m 211.88998,26404.95 22.63424,0 0,-26057.44608 -22.63424,0 z"
         clip-path="url(#p14d15c0661)" />
      <path
         inkscape:connector-curvature="0"
         id="path389"
         style="fill:#4c72b0;stroke:#000000;stroke-width:0.30000001;stroke-linecap:butt;stroke-linejoin:miter;stroke-miterlimit:100000"
         d="m 234.52422,26404.95 22.63425,0 0,-26087.02151 -22.63425,0 z"
         clip-path="url(#p14d15c0661)" />
      <path
         inkscape:connector-curvature="0"
         id="path392"
         style="fill:#4c72b0;stroke:#000000;stroke-width:0.30000001;stroke-linecap:butt;stroke-linejoin:miter;stroke-miterlimit:100000"
         d="m 257.15847,26404.95 22.63424,0 0,-26116.25434 -22.63424,0 z"
         clip-path="url(#p14d15c0661)" />
      <path
         inkscape:connector-curvature="0"
         id="path395"
         style="fill:#4c72b0;stroke:#000000;stroke-width:0.30000001;stroke-linecap:butt;stroke-linejoin:miter;stroke-miterlimit:100000"
         d="m 279.79271,26404.95 22.63424,0 0,-26145.23021 -22.63424,0 z"
         clip-path="url(#p14d15c0661)" />
      <path
         inkscape:connector-curvature="0"
         id="path398"
         style="fill:#4c72b0;stroke:#000000;stroke-width:0.30000001;stroke-linecap:butt;stroke-linejoin:miter;stroke-miterlimit:100000"
         d="m 302.42695,26404.95 22.63424,0 0,-26291.91259 -22.63424,0 z"
         clip-path="url(#p14d15c0661)" />
      <path
         inkscape:connector-curvature="0"
         id="path401"
         style="fill:#4c72b0;stroke:#000000;stroke-width:0.30000001;stroke-linecap:butt;stroke-linejoin:miter;stroke-miterlimit:100000"
         d="m 325.06119,26404.95 22.63424,0 0,-26330.619223 -22.63424,0 z"
         clip-path="url(#p14d15c0661)" />
      <path
         inkscape:connector-curvature="0"
         id="path404"
         style="fill:#4c72b0;stroke:#000000;stroke-width:0.30000001;stroke-linecap:butt;stroke-linejoin:miter;stroke-miterlimit:100000"
         d="m 347.69543,26404.95 22.63425,0 0,-26118.81904 -22.63425,0 z"
         clip-path="url(#p14d15c0661)" />
      <path
         inkscape:connector-curvature="0"
         id="path407"
         style="fill:#4c72b0;stroke:#000000;stroke-width:0.30000001;stroke-linecap:butt;stroke-linejoin:miter;stroke-miterlimit:100000"
         d="m 370.32968,26404.95 22.63424,0 0,-26048.49358 -22.63424,0 z"
         clip-path="url(#p14d15c0661)" />
      <path
         inkscape:connector-curvature="0"
         id="path410"
         style="fill:#4c72b0;stroke:#000000;stroke-width:0.30000001;stroke-linecap:butt;stroke-linejoin:miter;stroke-miterlimit:100000"
         d="m 392.96392,26404.95 22.63424,0 0,-25994.69584 -22.63424,0 z"
         clip-path="url(#p14d15c0661)" />
      <path
         inkscape:connector-curvature="0"
         id="path413"
         style="fill:#4c72b0;stroke:#000000;stroke-width:0.30000001;stroke-linecap:butt;stroke-linejoin:miter;stroke-miterlimit:100000"
         d="m 415.59816,26404.95 22.63424,0 0,-25935.51706 -22.63424,0 z"
         clip-path="url(#p14d15c0661)" />
      <path
         inkscape:connector-curvature="0"
         id="path416"
         style="fill:#4c72b0;stroke:#000000;stroke-width:0.30000001;stroke-linecap:butt;stroke-linejoin:miter;stroke-miterlimit:100000"
         d="m 438.2324,26404.95 22.63425,0 0,-25892.56538 -22.63425,0 z"
         clip-path="url(#p14d15c0661)" />
      <path
         inkscape:connector-curvature="0"
         id="path419"
         style="fill:none;stroke-linecap:butt;stroke-linejoin:round;stroke-miterlimit:100000"
         d="m 67.1625,64.35 416.4075,0" />
      <path
         inkscape:connector-curvature="0"
         id="path422"
         style="fill:none;stroke-linecap:butt;stroke-linejoin:round;stroke-miterlimit:100000"
         d="m 483.57,579.15 0,-514.8" />
      <path
         inkscape:connector-curvature="0"
         id="path425"
         style="fill:none;stroke-linecap:butt;stroke-linejoin:round;stroke-miterlimit:100000"
         d="m 67.1625,587.15 416.4075,0" />
      <path
         inkscape:connector-curvature="0"
         id="path428"
         style="fill:none;stroke-linecap:butt;stroke-linejoin:round;stroke-miterlimit:100000"
         d="m 67.1625,579.15 0,-514.8" />
    </g>
  </g>
  <defs
     id="defs430">
    <clipPath
       id="p14d15c0661">
      <rect
         height="514.8"
         width="416.4075"
         x="67.1625"
         y="64.35"
         id="rect433" />
    </clipPath>
  </defs>
</svg>
